<svg xmlns="http://www.w3.org/2000/svg" viewBox="0 0 41 37.69">
  <defs>
    <style>
      .cls-1 {
        fill: #231f20;
      }

      .cls-2 {
        fill: #e11d38;
      }
    </style>
  </defs>
  <g id="Layer_2" data-name="Layer 2">
    <g id="Layer_1-2" data-name="Layer 1">
      <path class="cls-1"
        d="M0,20.21c.51,4.17,3.71,7.9,7.26,10.59a24.89,24.89,0,0,1-4.08,6.89c4,0,9.13-.52,13.09-3a24.13,24.13,0,0,0,4.62.46c10.52,0,19.12-6.6,19.91-15a.93.93,0,0,0-1-1H.94A.9.9,0,0,0,0,20.21Z" />
      <path class="cls-2"
        d="M40.45,17.56h-.07A.51.51,0,0,1,40,17a4.78,4.78,0,0,0-1-3.48l-.18-.21L38.9,13c1.33-4.51-3.09-6.23-3.28-6.3l-.27-.1-.05-.28C34.85,3.74,32,3.79,31.89,3.81h-.25l-.16-.2a3.18,3.18,0,0,0-3.22-1.11L28,2.57l-.2-.16a6.06,6.06,0,0,0-7.45-.22l-.25.19-.28-.14a5.77,5.77,0,0,0-7.58,2l-.18.28-.33-.06A4.66,4.66,0,0,0,6.21,7.81l-.07.26-.26.09a3.8,3.8,0,0,0-2.44,3.37v.26l-.21.14C.15,14,1.54,16.36,1.6,16.47A.5.5,0,0,1,.74,17s-1.86-3.21,1.73-5.75A4.72,4.72,0,0,1,5.33,7.29a5.62,5.62,0,0,1,6.26-3.82A6.74,6.74,0,0,1,20,1.22a7.08,7.08,0,0,1,8.25.27,4.15,4.15,0,0,1,3.85,1.32,4.21,4.21,0,0,1,4.12,3.11c1.06.49,4.89,2.62,3.7,7.16a5.73,5.73,0,0,1,1,4A.51.51,0,0,1,40.45,17.56Z" />
      <path class="cls-2"
        d="M19.36,5.7a.51.51,0,0,1-.42-.77,5.26,5.26,0,0,0,.62-3.07.5.5,0,1,1,1-.13,6.29,6.29,0,0,1-.76,3.73A.52.52,0,0,1,19.36,5.7Z" />
      <path class="cls-2"
        d="M12.09,9.43a.52.52,0,0,1-.36-.16,3.94,3.94,0,0,1-.27-5.57l.3-.33.36.26c.38.28,2.25,1.71,1.65,2.92a.5.5,0,0,1-.67.22.5.5,0,0,1-.22-.67c.1-.21-.34-.81-1-1.35a3,3,0,0,0,.53,3.83.5.5,0,0,1,0,.71A.52.52,0,0,1,12.09,9.43Z" />
      <path class="cls-2"
        d="M25.86,6.46a.5.5,0,0,1-.46-.31.49.49,0,0,1,.27-.65,3.35,3.35,0,0,0,2-3.42.5.5,0,1,1,1-.11,4.31,4.31,0,0,1-2.57,4.45A.41.41,0,0,1,25.86,6.46Z" />
      <path class="cls-2"
        d="M36.89,14.59a.5.5,0,0,1-.5-.5.5.5,0,0,1,.5-.5c1.48,0,1.9-.25,2-.33a.51.51,0,0,1,1-.28.88.88,0,0,1-.09.8c-.36.54-1.27.8-2.86.81Z" />
      <path class="cls-2"
        d="M33.25,8.94a3.15,3.15,0,0,1-.52,0,.5.5,0,0,1-.4-.58.51.51,0,0,1,.59-.4c1.58.28,2.4-1.8,2.41-1.82a.5.5,0,0,1,.93.36C36.22,6.56,35.27,8.94,33.25,8.94Z" />
      <path class="cls-2"
        d="M8.14,13H8c-2.94-.71-2.58-4.87-2.57-5.05A.5.5,0,0,1,6,7.46.51.51,0,0,1,6.45,8s-.3,3.47,1.81,4a.5.5,0,0,1,.37.6A.5.5,0,0,1,8.14,13Z" />
      <path class="cls-2"
        d="M1.18,17H1.09a.51.51,0,0,1-.47-.53A.52.52,0,0,1,1.15,16,3.2,3.2,0,0,0,3.7,14.68a.5.5,0,0,1,.7-.1.51.51,0,0,1,.1.7A4.22,4.22,0,0,1,1.18,17Z" />
      <path class="cls-2"
        d="M5.93,17a.5.5,0,0,1-.37-.17.51.51,0,0,1,0-.71,3.51,3.51,0,0,1,3.58-.55,2.15,2.15,0,0,1,2.47-.15.5.5,0,0,1-.6.8c-.58-.43-1.47.31-1.48.32l-.26.21L9,16.62a2.51,2.51,0,0,0-2.75.27A.46.46,0,0,1,5.93,17Z" />
      <path class="cls-2"
        d="M22.77,17.07a.52.52,0,0,1-.42-.22c-.19-.29-1.31-.14-2.17.18l-.14,0c-3.54.25-5.25-3.06-5.32-3.2a.5.5,0,0,1,.22-.67.49.49,0,0,1,.67.22c.06.11,1.5,2.83,4.29,2.65.56-.19,2.57-.82,3.28.23a.51.51,0,0,1-.13.69A.51.51,0,0,1,22.77,17.07Z" />
      <path class="cls-2"
        d="M32.83,17.07a.51.51,0,0,1-.44-.25c-1.27-2.19-4.28-1.24-4.41-1.2a.49.49,0,0,1-.63-.32.51.51,0,0,1,.32-.63c1.34-.44,4.24-.67,5.59,1.65a.49.49,0,0,1-.18.68A.47.47,0,0,1,32.83,17.07Z" />
      <path class="cls-2"
        d="M34.51,14.2l-.24-.13C30.44,12,31.92,9,31.94,9a.5.5,0,0,1,.67-.22.49.49,0,0,1,.22.67h0c0,.09-1,2,1.66,3.64a2.81,2.81,0,0,0,1.09-1.72.5.5,0,0,1,1,.16,3.84,3.84,0,0,1-1.82,2.58Z" />
      <path class="cls-2"
        d="M34.31,17.07a.51.51,0,0,1-.42-.23.5.5,0,0,1,.15-.69c.38-.25.24-1.56,0-2.37a.51.51,0,0,1,.34-.62.5.5,0,0,1,.62.33c.14.45.75,2.74-.41,3.5A.5.5,0,0,1,34.31,17.07Z" />
      <path class="cls-2"
        d="M11.76,13l-.13,0a.49.49,0,0,1-.35-.6,2.55,2.55,0,0,1,1.24-1.47,4.82,4.82,0,0,1,3.78,0A12,12,0,0,1,20,9.15a8.79,8.79,0,0,1,5.79.27.5.5,0,1,1-.38.93,7.85,7.85,0,0,0-5.15-.24A10.86,10.86,0,0,0,16.7,11.8l-.22.17-.25-.09A4.26,4.26,0,0,0,13,11.75a1.52,1.52,0,0,0-.76.85A.52.52,0,0,1,11.76,13Z" />
      <path class="cls-2"
        d="M24.63,13.44h0a5.24,5.24,0,0,1-5-3.69.49.49,0,0,1,.36-.6.5.5,0,0,1,.61.36h0a4.19,4.19,0,0,0,4.08,2.93.5.5,0,0,1,0,1Z" />
      <path class="cls-2"
        d="M28.2,7.67a.47.47,0,0,1-.27-.08.5.5,0,0,1-.15-.69,3.15,3.15,0,0,1,4.35-1,.5.5,0,0,1-.5.87,2.19,2.19,0,0,0-3,.68A.48.48,0,0,1,28.2,7.67Z" />
      <path class="cls-2"
        d="M17.54,7.33a.59.59,0,0,1-.23,0,.5.5,0,0,1-.22-.67c.09-.19.93-1.81,2.24-1.85h.05c.75,0,1.44.52,2,1.54a.5.5,0,1,1-.86.5c-.29-.48-.75-1-1.19-1-.6,0-1.21,1-1.38,1.29A.49.49,0,0,1,17.54,7.33Z" />
    </g>
  </g>
</svg>
